#!OML:ASF F:\VICON\USERDATA\INSTALL\rory3\rory3.ASF
:FULLY-SPECIFIED
:DEGREES
208
root -0.518719 24.4921 -0.852533 3.19464 2.94527 1.92139
lowerback 10.2213 -0.627311 -0.0302441
upperback 0.725414 -0.843867 -0.155539
thorax -4.97885 -0.416555 -0.0242231
lowerneck -15.1115 -0.148849 -5.58887
upperneck 4.04061 0.40058 5.67159
head 3.61198 0.410953 2.67943
rclavicle -4.52235e-015 1.09332e-014
rhumerus -42.0958 -20.8511 -41.5115
rradius 32.3687
rwrist 12.1209
rhand -28.324 1.68085
rfingers 7.12502
rthumb -1.69885 -28.2921
lclavicle -4.52235e-015 1.09332e-014
lhumerus -37.9032 18.9042 54.7764
lradius 39.06
lwrist 13.5791
lhand -24.9875 24.0209
lfingers 7.12502
lthumb 1.52363 53.9952
rfemur -8.16396 14.1356 16.3308
rtibia 22.9343
rfoot -8.46898 -14.1626
rtoes -13.9252
lfemur -10.4274 -1.13803 -18.1333
ltibia 24.8413
lfoot 9.09738 3.34124
ltoes -7.03694
209
root -0.530437 24.2885 -0.864894 3.20626 3.15978 1.71396
lowerback 10.131 -0.653646 0.15923
upperback 0.791451 -0.854249 -0.100987
thorax -4.86122 -0.425227 -0.0741475
lowerneck -14.7141 -0.136338 -5.75063
upperneck 3.93718 0.411533 5.92164
head 3.51718 0.421627 2.78052
rclavicle 3.72721e-016 1.19271e-015
rhumerus -42.4164 -20.2692 -42.4787
rradius 32.3044
rwrist 12.8266
rhand -27.9584 2.58518
rfingers 7.12502
rthumb -1.3457 -27.3903
lclavicle 3.72721e-016 1.19271e-015
lhumerus -37.7696 17.6663 56.2858
lradius 39.2679
lwrist 13.6833
lhand -25.4607 26.4713
lfingers 7.12502
lthumb 1.06665 56.4484
rfemur -8.18644 14.0929 16.5389
rtibia 22.9374
rfoot -8.78347 -14.3055
rtoes -13.6146
lfemur -10.7078 -1.05696 -17.8435
ltibia 25.1163
lfoot 8.95792 3.30325
ltoes -7.99837
210
root -0.538193 24.0758 -0.875277 3.25142 3.39628 1.63698
lowerback 10.0457 -0.672645 0.278529
upperback 0.822847 -0.864622 -0.070863
thorax -4.78209 -0.432496 -0.109753
lowerneck -14.49 -0.188534 -5.953
upperneck 3.99791 0.347673 6.15008
head 3.50419 0.39539 2.87871
rclavicle -1.04362e-014 1.98785e-016
rhumerus -42.7248 -19.8268 -43.3217
rradius 32.2738
rwrist 13.3716
rhand -27.7743 3.17133
rfingers 7.12502
rthumb -1.16792 -26.8052
lclavicle -1.04362e-014 1.98785e-016
lhumerus -37.6789 16.0592 58.0079
lradius 39.3892
lwrist 14.8007
lhand -27.1063 27.9968
lfingers 7.12502
lthumb -0.522745 57.9759
rfemur -8.25696 13.8895 16.5865
rtibia 23.0326
rfoot -8.80104 -14.5124
rtoes -12.8933
lfemur -11.0191 -1.06401 -17.7208
ltibia 25.3896
lfoot 9.13079 3.67434
ltoes -7.41849
211
root -0.542691 23.8552 -0.883224 3.25119 3.59458 1.65446
lowerback 10.0343 -0.715364 0.29972
upperback 0.870855 -0.91804 -0.0535342
thorax -4.72581 -0.459018 -0.0967063
lowerneck -14.7019 -0.260471 -5.94276
upperneck 4.51061 0.247536 6.0907
head 3.70044 0.345688 2.85688
rclavicle -1.20762e-014 3.97569e-015
rhumerus -42.9541 -19.1828 -44.3314
rradius 32.4452
rwrist 13.4808
rhand -27.8038 3.1649
rfingers 7.12502
rthumb -1.19644 -26.8115
lclavicle -1.20762e-014 3.97569e-015
lhumerus -37.7339 14.9049 59.3179
lradius 39.1762
lwrist 14.4973
lhand -27.1354 27.3623
lfingers 7.12502
lthumb -0.550894 57.3413
rfemur -8.29512 13.6391 16.5396
rtibia 23.2564
rfoot -8.71844 -14.959
rtoes -11.8291
lfemur -11.2366 -1.15979 -17.7387
ltibia 25.627
lfoot 9.3668 4.32905
ltoes -6.19725
212
root -0.548894 23.6197 -0.891032 3.19221 3.7748 1.52713
lowerback 10.0099 -0.768425 0.403312
upperback 0.942892 -0.973448 0.0181521
thorax -4.63766 -0.487594 -0.073668
lowerneck -14.7364 -0.295307 -5.87651
upperneck 4.93258 0.187971 5.94932
head 3.83862 0.309828 2.80118
rclavicle -1.41634e-014 1.19271e-014
rhumerus -43.1875 -18.3262 -45.4778
rradius 32.8026
rwrist 13.2534
rhand -27.7522 2.84564
rfingers 7.12502
rthumb -1.14662 -27.131
lclavicle -1.41634e-014 1.19271e-014
lhumerus -37.9988 14.7085 59.8828
lradius 38.4657
lwrist 11.4509
lhand -24.7383 23.2771
lfingers 7.12502
lthumb 1.76429 53.2495
rfemur -8.35641 13.3551 16.7064
rtibia 23.6726
rfoot -8.3464 -15.7079
rtoes -10.7567
lfemur -11.3686 -1.26658 -17.5957
ltibia 25.7916
lfoot 9.82866 4.9878
ltoes -3.77158
213
root -0.560218 23.3753 -0.900181 3.13864 3.98785 1.4504
lowerback 9.95188 -0.806556 0.40518
upperback 1.0042 -1.02099 0.0830553
thorax -4.54037 -0.510412 -0.00207541
lowerneck -14.3232 -0.318002 -6.03851
upperneck 4.91682 0.153363 6.10257
head 3.7704 0.291995 2.86988
rclavicle -4.17448e-015 -7.55382e-015
rhumerus -43.4673 -17.775 -46.3831
rradius 33.0046
rwrist 13.5705
rhand -27.7472 3.52613
rfingers 7.12502
rthumb -1.14174 -26.4506
lclavicle -4.17448e-015 -7.55382e-015
lhumerus -38.3374 13.7682 61.0675
lradius 38.8299
lwrist 10.5995
lhand -24.8268 22.9525
lfingers 7.12502
lthumb 1.67889 52.9256
rfemur -8.52279 12.9232 16.8778
rtibia 24.299
rfoot -7.58962 -16.6885
rtoes -10.2942
lfemur -11.5355 -1.36388 -17.4897
ltibia 25.9673
lfoot 10.3491 5.66978
ltoes -2.0828
214
root -0.570419 23.1202 -0.910074 3.12318 4.18741 1.48184
lowerback 9.86274 -0.842309 0.35349
upperback 1.11169 -1.07491 0.076184
thorax -4.3779 -0.536034 0.024764
lowerneck -14.2034 -0.356889 -6.22287
upperneck 4.91586 0.105681 6.36999
head 3.7545 0.277674 2.97904
rclavicle 2.27608e-014 -2.38542e-015
rhumerus -43.6658 -17.5177 -47.2656
rradius 33.115
rwrist 14.0925
rhand -27.9846 4.30203
rfingers 7.12502
rthumb -1.37101 -25.6733
lclavicle 2.27608e-014 -2.38542e-015
lhumerus -38.4869 12.9965 62.1927
lradius 39.275
lwrist 9.59469
lhand -25.2332 23.7834
lfingers 7.12502
lthumb 1.28635 53.7592
rfemur -8.78057 12.4041 16.9135
rtibia 25.0906
rfoot -6.93695 -17.8136
rtoes -9.18721
lfemur -11.7698 -1.50195 -17.513
ltibia 26.2495
lfoot 10.6651 6.56772
ltoes -0.85998
215
root -0.577409 22.847 -0.919862 3.05976 4.28979 1.37038
lowerback 9.78964 -0.865349 0.427827
upperback 1.27648 -1.09604 0.11906
thorax -4.16607 -0.54717 0.0274529
lowerneck -14.2283 -0.387642 -6.26355
upperneck 4.95838 0.0673882 6.42111
head 3.77407 0.261124 2.99938
rclavicle 4.37326e-015 8.74653e-015
rhumerus -43.7405 -17.327 -48.1803
rradius 33.326
rwrist 14.3588
rhand -28.3119 4.05631
rfingers 7.12502
rthumb -1.68715 -25.9168
lclavicle 4.37326e-015 8.74653e-015
lhumerus -38.5308 12.3533 63.3194
lradius 39.8245
lwrist 8.98915
lhand -25.203 24.5261
lfingers 7.12502
lthumb 1.31549 54.5018
rfemur -9.07119 11.9 17.0984
rtibia 26.0928
rfoot -6.60117 -18.973
rtoes -7.44004
lfemur -11.9564 -1.74205 -17.4073
ltibia 26.6263
lfoot 10.6992 7.57251
ltoes -0.584092
216
root -0.580498 22.56 -0.930939 2.90384 4.37783 1.10821
lowerback 9.77398 -0.910215 0.71582
upperback 1.47808 -1.12198 0.203097
thorax -3.95143 -0.563137 -0.046285
lowerneck -14.2189 -0.421002 -6.22278
upperneck 4.97121 0.0266479 6.27867
head 3.77874 0.233788 2.94542
rclavicle -1.00883e-014 -3.37934e-015
rhumerus -43.7449 -17.0943 -49.0779
rradius 33.6904
rwrist 14.3907
rhand -28.3076 3.7782
rfingers 7.12502
rthumb -1.68297 -26.1949
lclavicle -1.00883e-014 -3.37934e-015
lhumerus -38.5355 11.8331 64.3688
lradius 40.3965
lwrist 8.62207
lhand -24.8479 24.4911
lfingers 7.12502
lthumb 1.65848 54.4644
rfemur -9.3179 11.3169 17.4967
rtibia 27.289
rfoot -6.28857 -20.1489
rtoes -6.03697
lfemur -12.0565 -1.99201 -17.1623
ltibia 27.1036
lfoot 10.7281 8.37927
ltoes -1.2449
